<mxfile host="app.diagrams.net" modified="2024-01-18T02:17:41.147Z" agent="Mozilla/5.0 (Windows NT 10.0; Win64; x64) AppleWebKit/537.36 (KHTML, like Gecko) Chrome/120.0.0.0 Safari/537.36" etag="_prHzZzCEiJ5vL93Z8V0" version="22.1.18" type="github">
  <diagram name="PÃ¡gina-1" id="t9sZGeA3UtfjvMpdHqfp">
    <mxGraphModel dx="1434" dy="746" grid="1" gridSize="10" guides="1" tooltips="1" connect="1" arrows="1" fold="1" page="1" pageScale="1" pageWidth="827" pageHeight="1169" math="0" shadow="0">
      <root>
        <mxCell id="0" />
        <mxCell id="1" parent="0" />
        <mxCell id="4ciez_hd8-WoxLsswLyC-1" value="Usuarios" style="whiteSpace=wrap;html=1;align=center;" vertex="1" parent="1">
          <mxGeometry x="220" y="100" width="100" height="40" as="geometry" />
        </mxCell>
        <mxCell id="4ciez_hd8-WoxLsswLyC-2" value="Tareas" style="whiteSpace=wrap;html=1;align=center;" vertex="1" parent="1">
          <mxGeometry x="610" y="400" width="100" height="40" as="geometry" />
        </mxCell>
        <mxCell id="4ciez_hd8-WoxLsswLyC-3" value="Historial&amp;nbsp;" style="whiteSpace=wrap;html=1;align=center;" vertex="1" parent="1">
          <mxGeometry x="930" y="100" width="100" height="40" as="geometry" />
        </mxCell>
        <mxCell id="4ciez_hd8-WoxLsswLyC-20" style="edgeStyle=orthogonalEdgeStyle;rounded=0;orthogonalLoop=1;jettySize=auto;html=1;entryX=0;entryY=0.5;entryDx=0;entryDy=0;" edge="1" parent="1" source="4ciez_hd8-WoxLsswLyC-6" target="4ciez_hd8-WoxLsswLyC-1">
          <mxGeometry relative="1" as="geometry">
            <Array as="points">
              <mxPoint x="120" y="120" />
            </Array>
          </mxGeometry>
        </mxCell>
        <mxCell id="4ciez_hd8-WoxLsswLyC-6" value="&lt;span style=&quot;border-bottom: 1px dotted&quot;&gt;Id&lt;/span&gt;" style="ellipse;whiteSpace=wrap;html=1;align=center;" vertex="1" parent="1">
          <mxGeometry x="70" y="170" width="100" height="40" as="geometry" />
        </mxCell>
        <mxCell id="4ciez_hd8-WoxLsswLyC-19" style="edgeStyle=orthogonalEdgeStyle;rounded=0;orthogonalLoop=1;jettySize=auto;html=1;" edge="1" parent="1" source="4ciez_hd8-WoxLsswLyC-7" target="4ciez_hd8-WoxLsswLyC-6">
          <mxGeometry relative="1" as="geometry" />
        </mxCell>
        <mxCell id="4ciez_hd8-WoxLsswLyC-7" value="Estado" style="ellipse;whiteSpace=wrap;html=1;align=center;" vertex="1" parent="1">
          <mxGeometry x="70" y="240" width="100" height="40" as="geometry" />
        </mxCell>
        <mxCell id="4ciez_hd8-WoxLsswLyC-18" style="edgeStyle=orthogonalEdgeStyle;rounded=0;orthogonalLoop=1;jettySize=auto;html=1;" edge="1" parent="1" source="4ciez_hd8-WoxLsswLyC-8" target="4ciez_hd8-WoxLsswLyC-7">
          <mxGeometry relative="1" as="geometry" />
        </mxCell>
        <mxCell id="4ciez_hd8-WoxLsswLyC-8" value="&lt;span style=&quot;border-bottom: 1px dotted&quot;&gt;Nombre&lt;/span&gt;" style="ellipse;whiteSpace=wrap;html=1;align=center;" vertex="1" parent="1">
          <mxGeometry x="70" y="310" width="100" height="40" as="geometry" />
        </mxCell>
        <mxCell id="4ciez_hd8-WoxLsswLyC-17" style="edgeStyle=orthogonalEdgeStyle;rounded=0;orthogonalLoop=1;jettySize=auto;html=1;" edge="1" parent="1" source="4ciez_hd8-WoxLsswLyC-9" target="4ciez_hd8-WoxLsswLyC-8">
          <mxGeometry relative="1" as="geometry" />
        </mxCell>
        <mxCell id="4ciez_hd8-WoxLsswLyC-9" value="&lt;span style=&quot;border-bottom: 1px dotted&quot;&gt;Imagen&lt;/span&gt;" style="ellipse;whiteSpace=wrap;html=1;align=center;" vertex="1" parent="1">
          <mxGeometry x="70" y="380" width="100" height="40" as="geometry" />
        </mxCell>
        <mxCell id="4ciez_hd8-WoxLsswLyC-16" style="edgeStyle=orthogonalEdgeStyle;rounded=0;orthogonalLoop=1;jettySize=auto;html=1;" edge="1" parent="1" source="4ciez_hd8-WoxLsswLyC-10" target="4ciez_hd8-WoxLsswLyC-9">
          <mxGeometry relative="1" as="geometry" />
        </mxCell>
        <mxCell id="4ciez_hd8-WoxLsswLyC-10" value="&lt;span style=&quot;border-bottom: 1px dotted&quot;&gt;Nombre de usuario&lt;/span&gt;" style="ellipse;whiteSpace=wrap;html=1;align=center;" vertex="1" parent="1">
          <mxGeometry x="70" y="450" width="100" height="40" as="geometry" />
        </mxCell>
        <mxCell id="4ciez_hd8-WoxLsswLyC-15" style="edgeStyle=orthogonalEdgeStyle;rounded=0;orthogonalLoop=1;jettySize=auto;html=1;" edge="1" parent="1" source="4ciez_hd8-WoxLsswLyC-11" target="4ciez_hd8-WoxLsswLyC-10">
          <mxGeometry relative="1" as="geometry" />
        </mxCell>
        <mxCell id="4ciez_hd8-WoxLsswLyC-11" value="&lt;span style=&quot;border-bottom: 1px dotted&quot;&gt;Correo&lt;/span&gt;" style="ellipse;whiteSpace=wrap;html=1;align=center;" vertex="1" parent="1">
          <mxGeometry x="70" y="520" width="100" height="40" as="geometry" />
        </mxCell>
        <mxCell id="4ciez_hd8-WoxLsswLyC-14" style="edgeStyle=orthogonalEdgeStyle;rounded=0;orthogonalLoop=1;jettySize=auto;html=1;entryX=0.5;entryY=1;entryDx=0;entryDy=0;" edge="1" parent="1" source="4ciez_hd8-WoxLsswLyC-12" target="4ciez_hd8-WoxLsswLyC-11">
          <mxGeometry relative="1" as="geometry" />
        </mxCell>
        <mxCell id="4ciez_hd8-WoxLsswLyC-12" value="&lt;span style=&quot;border-bottom: 1px dotted&quot;&gt;Contrasenia&lt;/span&gt;" style="ellipse;whiteSpace=wrap;html=1;align=center;" vertex="1" parent="1">
          <mxGeometry x="70" y="590" width="100" height="40" as="geometry" />
        </mxCell>
        <mxCell id="4ciez_hd8-WoxLsswLyC-34" style="edgeStyle=orthogonalEdgeStyle;rounded=0;orthogonalLoop=1;jettySize=auto;html=1;entryX=0;entryY=0.5;entryDx=0;entryDy=0;" edge="1" parent="1" source="4ciez_hd8-WoxLsswLyC-21" target="4ciez_hd8-WoxLsswLyC-2">
          <mxGeometry relative="1" as="geometry">
            <Array as="points">
              <mxPoint x="510" y="420" />
            </Array>
          </mxGeometry>
        </mxCell>
        <mxCell id="4ciez_hd8-WoxLsswLyC-21" value="&lt;span style=&quot;border-bottom: 1px dotted&quot;&gt;Id&lt;/span&gt;" style="ellipse;whiteSpace=wrap;html=1;align=center;" vertex="1" parent="1">
          <mxGeometry x="460" y="450" width="100" height="40" as="geometry" />
        </mxCell>
        <mxCell id="4ciez_hd8-WoxLsswLyC-22" style="edgeStyle=orthogonalEdgeStyle;rounded=0;orthogonalLoop=1;jettySize=auto;html=1;" edge="1" parent="1" source="4ciez_hd8-WoxLsswLyC-23" target="4ciez_hd8-WoxLsswLyC-21">
          <mxGeometry relative="1" as="geometry" />
        </mxCell>
        <mxCell id="4ciez_hd8-WoxLsswLyC-23" value="Estado" style="ellipse;whiteSpace=wrap;html=1;align=center;" vertex="1" parent="1">
          <mxGeometry x="460" y="520" width="100" height="40" as="geometry" />
        </mxCell>
        <mxCell id="4ciez_hd8-WoxLsswLyC-24" style="edgeStyle=orthogonalEdgeStyle;rounded=0;orthogonalLoop=1;jettySize=auto;html=1;" edge="1" parent="1" source="4ciez_hd8-WoxLsswLyC-25" target="4ciez_hd8-WoxLsswLyC-23">
          <mxGeometry relative="1" as="geometry" />
        </mxCell>
        <mxCell id="4ciez_hd8-WoxLsswLyC-25" value="&lt;span style=&quot;border-bottom: 1px dotted&quot;&gt;Nombre&lt;/span&gt;" style="ellipse;whiteSpace=wrap;html=1;align=center;" vertex="1" parent="1">
          <mxGeometry x="460" y="590" width="100" height="40" as="geometry" />
        </mxCell>
        <mxCell id="4ciez_hd8-WoxLsswLyC-26" style="edgeStyle=orthogonalEdgeStyle;rounded=0;orthogonalLoop=1;jettySize=auto;html=1;" edge="1" parent="1" source="4ciez_hd8-WoxLsswLyC-27" target="4ciez_hd8-WoxLsswLyC-25">
          <mxGeometry relative="1" as="geometry" />
        </mxCell>
        <mxCell id="4ciez_hd8-WoxLsswLyC-27" value="&lt;span style=&quot;border-bottom: 1px dotted&quot;&gt;Imagen&lt;/span&gt;" style="ellipse;whiteSpace=wrap;html=1;align=center;" vertex="1" parent="1">
          <mxGeometry x="460" y="660" width="100" height="40" as="geometry" />
        </mxCell>
        <mxCell id="4ciez_hd8-WoxLsswLyC-28" style="edgeStyle=orthogonalEdgeStyle;rounded=0;orthogonalLoop=1;jettySize=auto;html=1;" edge="1" parent="1" source="4ciez_hd8-WoxLsswLyC-29" target="4ciez_hd8-WoxLsswLyC-27">
          <mxGeometry relative="1" as="geometry" />
        </mxCell>
        <mxCell id="4ciez_hd8-WoxLsswLyC-29" value="&lt;span style=&quot;border-bottom: 1px dotted&quot;&gt;Fecha de inicio&lt;/span&gt;" style="ellipse;whiteSpace=wrap;html=1;align=center;" vertex="1" parent="1">
          <mxGeometry x="460" y="730" width="100" height="40" as="geometry" />
        </mxCell>
        <mxCell id="4ciez_hd8-WoxLsswLyC-30" style="edgeStyle=orthogonalEdgeStyle;rounded=0;orthogonalLoop=1;jettySize=auto;html=1;" edge="1" parent="1" source="4ciez_hd8-WoxLsswLyC-31" target="4ciez_hd8-WoxLsswLyC-29">
          <mxGeometry relative="1" as="geometry" />
        </mxCell>
        <mxCell id="4ciez_hd8-WoxLsswLyC-31" value="&lt;span style=&quot;border-bottom: 1px dotted&quot;&gt;Fecha de fin&lt;/span&gt;" style="ellipse;whiteSpace=wrap;html=1;align=center;" vertex="1" parent="1">
          <mxGeometry x="460" y="800" width="100" height="40" as="geometry" />
        </mxCell>
        <mxCell id="4ciez_hd8-WoxLsswLyC-32" style="edgeStyle=orthogonalEdgeStyle;rounded=0;orthogonalLoop=1;jettySize=auto;html=1;entryX=0.5;entryY=1;entryDx=0;entryDy=0;" edge="1" parent="1" source="4ciez_hd8-WoxLsswLyC-33" target="4ciez_hd8-WoxLsswLyC-31">
          <mxGeometry relative="1" as="geometry" />
        </mxCell>
        <mxCell id="4ciez_hd8-WoxLsswLyC-33" value="&lt;span style=&quot;border-bottom: 1px dotted&quot;&gt;Temporizador&lt;/span&gt;" style="ellipse;whiteSpace=wrap;html=1;align=center;" vertex="1" parent="1">
          <mxGeometry x="460" y="870" width="100" height="40" as="geometry" />
        </mxCell>
        <mxCell id="4ciez_hd8-WoxLsswLyC-39" style="edgeStyle=orthogonalEdgeStyle;rounded=0;orthogonalLoop=1;jettySize=auto;html=1;entryX=1;entryY=0.5;entryDx=0;entryDy=0;" edge="1" parent="1" source="4ciez_hd8-WoxLsswLyC-35" target="4ciez_hd8-WoxLsswLyC-1">
          <mxGeometry relative="1" as="geometry" />
        </mxCell>
        <mxCell id="4ciez_hd8-WoxLsswLyC-40" style="edgeStyle=orthogonalEdgeStyle;rounded=0;orthogonalLoop=1;jettySize=auto;html=1;entryX=0.5;entryY=0;entryDx=0;entryDy=0;" edge="1" parent="1" source="4ciez_hd8-WoxLsswLyC-35" target="4ciez_hd8-WoxLsswLyC-2">
          <mxGeometry relative="1" as="geometry" />
        </mxCell>
        <mxCell id="4ciez_hd8-WoxLsswLyC-35" value="M:M" style="shape=rhombus;perimeter=rhombusPerimeter;whiteSpace=wrap;html=1;align=center;" vertex="1" parent="1">
          <mxGeometry x="600" y="90" width="120" height="60" as="geometry" />
        </mxCell>
      </root>
    </mxGraphModel>
  </diagram>
</mxfile>
